<svg xmlns="http://www.w3.org/2000/svg" xmlns:xlink="http://www.w3.org/1999/xlink" viewBox="0 0 512.75 379.6"><defs><style>.cls-1,.cls-12,.cls-14,.cls-21,.cls-22,.cls-27,.cls-35{fill:none;}.cls-2{isolation:isolate;}.cls-3{clip-path:url(#clip-path);}.cls-16,.cls-4{opacity:0.34;}.cls-10,.cls-16,.cls-5{fill:#ddd6fe;}.cls-24,.cls-25,.cls-6{fill:#e25f97;}.cls-6{opacity:0.57;}.cls-7{opacity:0.33;}.cls-15,.cls-25,.cls-30,.cls-34,.cls-37,.cls-7{mix-blend-mode:multiply;}.cls-15,.cls-26,.cls-8{fill:#6455bc;}.cls-9{opacity:0.44;}.cls-10{opacity:0.53;}.cls-11,.cls-34{fill:#74d3c5;}.cls-12,.cls-14,.cls-35{stroke:#3f2f7c;}.cls-12,.cls-14,.cls-17,.cls-21,.cls-22,.cls-27,.cls-35{stroke-miterlimit:10;}.cls-12{stroke-width:0.41px;}.cls-12,.cls-14{opacity:0.39;}.cls-13{fill:#14b59d;}.cls-14{stroke-width:0.55px;}.cls-17{fill:#f6f6f6;stroke-width:0.84px;}.cls-17,.cls-21,.cls-22{stroke:#a793f7;}.cls-18{fill:#a793f7;}.cls-19{fill:#fff;}.cls-20,.cls-23,.cls-33,.cls-37{fill:#3f2f7c;}.cls-21,.cls-22,.cls-35{stroke-width:0.91px;}.cls-22{stroke-dasharray:11.25 11.25;}.cls-23{mix-blend-mode:overlay;}.cls-25{opacity:0.38;}.cls-26{opacity:0.43;}.cls-27{stroke:#1e154a;stroke-width:0.89px;}.cls-28{fill:#8f81b3;}.cls-29,.cls-30{fill:#f0b3ad;}.cls-30{opacity:0.47;}.cls-31{opacity:0.82;}.cls-32{fill:#de312d;}.cls-33{opacity:0.49;}.cls-36{fill:url(#linear-gradient);}.cls-37{opacity:0.36;}.cls-38{fill:#1e154a;}</style><clipPath id="clip-path"><rect class="cls-1" x="77.44" y="-42.09" width="356.48" height="501.36"/></clipPath><linearGradient id="linear-gradient" x1="243.24" y1="320.54" x2="243.24" y2="118.56" gradientUnits="userSpaceOnUse"><stop offset="0" stop-color="#fff"/><stop offset="0.06" stop-color="#fff" stop-opacity="0.86"/><stop offset="0.16" stop-color="#fff" stop-opacity="0.66"/><stop offset="0.26" stop-color="#fff" stop-opacity="0.48"/><stop offset="0.37" stop-color="#fff" stop-opacity="0.33"/><stop offset="0.48" stop-color="#fff" stop-opacity="0.21"/><stop offset="0.59" stop-color="#fff" stop-opacity="0.12"/><stop offset="0.71" stop-color="#fff" stop-opacity="0.05"/><stop offset="0.84" stop-color="#fff" stop-opacity="0.01"/><stop offset="1" stop-color="#fff" stop-opacity="0"/></linearGradient></defs><g class="cls-2"><g id="Ilustracion_index" data-name="Ilustracion index"><g class="cls-3"><g class="cls-4"><path class="cls-5" d="M91.53,327.52a43.23,43.23,0,0,1,14.2-70.23c5.62-2.34,11.71-3.48,17.22-6.05,19.26-9,23.22-32,34.11-50.23,15.82-26.53,43.91-46,74.65-49s63.17,11.77,79,38.26c8.57,14.3,12.39,31.33,22.7,44.42a55.24,55.24,0,0,0,28.75,19c9.92,2.67,20.39,2.51,30.42,4.73,15.51,3.43,30.15,13.38,36.28,28s1.83,33.8-11.64,42.21Z"/></g><g class="cls-4"><path class="cls-5" d="M120.77,327.61A33.42,33.42,0,0,1,112,298.07c2.12-10.48,6.49-19.69,16.36-23.8,4.27-1.78,8.89-2.65,13.08-4.6,14.62-6.83,20.07-24.29,28.34-38.15,12-20.15,33.35-35,56.7-37.23s48,8.94,60,29.06c6.51,10.85,9.41,23.79,17.24,33.73a41.86,41.86,0,0,0,21.84,14.42c7.53,2,15.49,1.91,23.11,3.6,11.77,2.61,22.89,10.16,27.55,21.29s1.39,25.68-8.85,32.06Z"/></g><rect class="cls-6" x="284.57" y="222.43" width="87.84" height="90.15" rx="10.92" transform="translate(13.14 550.39) rotate(-81.05)"/><rect class="cls-6" x="290.61" y="228.64" width="75.75" height="77.74" rx="9.42" transform="translate(13.14 550.38) rotate(-81.05)"/><g class="cls-7"><path class="cls-8" d="M299.86,307.66a.45.45,0,0,1-.38-.51l13.62-86.51a.46.46,0,0,1,.9.15l-13.63,86.5A.44.44,0,0,1,299.86,307.66Z"/></g><g class="cls-7"><path class="cls-8" d="M322.61,311.25a.46.46,0,0,1-.38-.52l13.63-86.5a.45.45,0,1,1,.89.14l-13.62,86.5A.46.46,0,0,1,322.61,311.25Z"/></g><g class="cls-7"><path class="cls-8" d="M345.36,314.83a.45.45,0,0,1-.37-.52l13.62-86.5a.45.45,0,0,1,.89.14l-13.62,86.5A.45.45,0,0,1,345.36,314.83Z"/></g><g class="cls-7"><path class="cls-8" d="M374.52,260.45,287.3,246.72a.46.46,0,0,1,.14-.9l87.22,13.74a.45.45,0,1,1-.14.89Z"/></g><g class="cls-7"><path class="cls-8" d="M369.79,290.54,282.57,276.8a.45.45,0,1,1,.14-.89l87.22,13.74a.45.45,0,0,1-.14.89Z"/></g><path class="cls-8" d="M311.33,249.64a2.21,2.21,0,1,1-1.84-2.52A2.21,2.21,0,0,1,311.33,249.64Z"/><path class="cls-8" d="M357,256.83a2.21,2.21,0,1,1-1.84-2.52A2.22,2.22,0,0,1,357,256.83Z"/><path class="cls-8" d="M306.69,279.83a2.21,2.21,0,1,1-1.84-2.52A2.21,2.21,0,0,1,306.69,279.83Z"/><path class="cls-8" d="M352.12,287a2.21,2.21,0,1,1-1.84-2.52A2.2,2.2,0,0,1,352.12,287Z"/><g class="cls-9"><path class="cls-8" d="M113.28,255.92s24.38-33.2,73.61-26.4c0,0,32.15,43,31.08,72.17,0,0-39.1,26.53-72.62,25C145.35,326.69,121.22,315.5,113.28,255.92Z"/><path class="cls-10" d="M121,256s21.74-29.61,65.64-23.55c0,0,28.66,38.38,27.71,64.36,0,0-34.86,23.66-64.76,22.29C149.62,319.07,128.11,309.1,121,256Z"/><ellipse class="cls-8" cx="170.06" cy="272.49" rx="5.76" ry="6.07" transform="matrix(0.99, -0.17, 0.17, 0.99, -44.33, 33.31)"/></g><path class="cls-11" d="M148.7,301.59c-2.39,3.39-6.14,4.88-8.36,3.31s-2.08-5.59.31-9,9.78-9.68,12-8.11S151.1,298.19,148.7,301.59Z"/><line class="cls-12" x1="149.33" y1="292.15" x2="140.34" y2="304.9"/><path class="cls-11" d="M119.64,304.13c3.34,2.48,7.36,2.72,9,.53s.23-6-3.1-8.44-12.31-6.14-13.94-4S116.31,301.65,119.64,304.13Z"/><line class="cls-12" x1="116.1" y1="295.36" x2="128.62" y2="304.66"/><path class="cls-13" d="M144.56,297.69c-1.65,5.37-5.84,8.85-9.35,7.77s-5-6.31-3.38-11.67,8.49-16.54,12-15.46S146.2,292.33,144.56,297.69Z"/><line class="cls-14" x1="141.4" y1="285.32" x2="135.21" y2="305.46"/><path class="cls-13" d="M133.87,293.36c2.68,4.94,2.23,10.36-1,12.11s-8-.83-10.7-5.76-5.86-17.64-2.63-19.39S131.19,288.43,133.87,293.36Z"/><line class="cls-14" x1="122.82" y1="286.95" x2="132.87" y2="305.47"/><path class="cls-11" d="M139.76,295.55c0,5.61-3,10.17-6.65,10.17s-6.66-4.56-6.66-10.17,3.26-18.3,6.93-18.3S139.76,289.94,139.76,295.55Z"/><line class="cls-14" x1="133.11" y1="284.64" x2="133.11" y2="305.72"/><path class="cls-8" d="M121.08,306.42a13.65,13.65,0,1,0,22.86,0Z"/><path class="cls-15" d="M146.14,313.44a13.61,13.61,0,0,0-2.2-7H121.08a13.61,13.61,0,0,0-2.21,7Z"/><path class="cls-8" d="M145.86,308.71h-27.3a2.13,2.13,0,0,1-2.13-2.12h0a2.13,2.13,0,0,1,2.13-2.12h27.3a2.13,2.13,0,0,1,2.12,2.12h0A2.13,2.13,0,0,1,145.86,308.71Z"/><ellipse class="cls-16" cx="410.83" cy="192.62" rx="8.65" ry="9.1"/><circle class="cls-16" cx="384.89" cy="185.34" r="4.55"/><ellipse class="cls-16" cx="108.24" cy="150.13" rx="8.65" ry="9.1"/><circle class="cls-16" cx="118.25" cy="127.38" r="4.55"/><circle class="cls-16" cx="128.27" cy="144.67" r="4.55"/><path class="cls-17" d="M151,241.38h0c0-.09,0-.18,0-.27V219.82a10.05,10.05,0,0,0-10-10H99.61a10.05,10.05,0,0,0-10,10v21.29a10.05,10.05,0,0,0,10,10H156.7C152.75,250.78,151,241.38,151,241.38Z"/><path class="cls-18" d="M97.68,220.28h47.14a.9.9,0,0,0,.9-.9h0a.9.9,0,0,0-.9-.89H97.68a.9.9,0,0,0-.9.89h0A.9.9,0,0,0,97.68,220.28Z"/><path class="cls-18" d="M97.68,231.92h47.14a.91.91,0,0,0,.9-.9h0a.9.9,0,0,0-.9-.9H97.68a.9.9,0,0,0-.9.9h0A.91.91,0,0,0,97.68,231.92Z"/><rect class="cls-18" x="111.9" y="224.48" width="33.82" height="1.44" rx="0.67" transform="translate(257.61 450.4) rotate(180)"/><rect class="cls-18" x="111.9" y="236.12" width="33.82" height="1.44" rx="0.67" transform="translate(257.61 473.67) rotate(180)"/><path class="cls-17" d="M303.33,158.31h0c0-.09,0-.18,0-.27v-21.3a10.05,10.05,0,0,1,10-10H354.7a10.05,10.05,0,0,1,10,10V158a10.05,10.05,0,0,1-10,10H297.61C301.56,167.7,303.33,158.31,303.33,158.31Z"/><path class="cls-18" d="M356.63,137.21H309.49a.9.9,0,0,1-.9-.9h0a.91.91,0,0,1,.9-.9h47.14a.91.91,0,0,1,.9.9h0A.9.9,0,0,1,356.63,137.21Z"/><path class="cls-18" d="M356.63,148.84H309.49a.9.9,0,0,1-.9-.9h0a.9.9,0,0,1,.9-.89h47.14a.9.9,0,0,1,.9.89h0A.9.9,0,0,1,356.63,148.84Z"/><rect class="cls-18" x="308.59" y="141.41" width="33.82" height="1.44" rx="0.67"/><rect class="cls-18" x="308.59" y="153.04" width="33.82" height="1.44" rx="0.67"/><ellipse class="cls-19" cx="389.67" cy="262.1" rx="8.42" ry="8.89"/><path class="cls-20" d="M426.22,320.63h-13.1v-59a12.16,12.16,0,0,0,1.87-9.57l2.69-1.52a3.51,3.51,0,1,0-3.44-6.11l-2.69,1.51a12.14,12.14,0,0,0-18.89,2.6l-.16-.29-13.66.82,16.53,29.35,7.79-11.26-.17-.29a12.07,12.07,0,0,0,6.11-1.56l.28-.17v55.5h-15a3.28,3.28,0,1,0,0,6.55h31.81a3.28,3.28,0,0,0,0-6.55Z"/><path class="cls-19" d="M343.05,318.59c2.54,5.09,6.92,8.47,11.9,8.47,7.84,0,14.2-8.33,14.2-18.61,0-.52,0-1,0-1.54H340.81c0,.4,0,.8,0,1.21-2.79.86-4.74,2.95-4.64,5.31C336.24,316.3,339.29,318.52,343.05,318.59Zm-3.86-5.28a4.71,4.71,0,0,1,1.61-3.59,22.83,22.83,0,0,0,1.85,8A5.29,5.29,0,0,1,339.19,313.31Z"/><path class="cls-16" d="M336.13,313.43c.11,2.87,3.16,5.09,6.92,5.16,2.54,5.09,6.92,8.47,11.9,8.47a12.23,12.23,0,0,0,8.75-3.95,21.73,21.73,0,0,1-5.28-.34,25.92,25.92,0,0,1-10.18-4c-4-2.9-6.19-7.23-7.42-11.86h0c0,.4,0,.8,0,1.21C338,309,336,311.07,336.13,313.43Zm3.06-.12a4.71,4.71,0,0,1,1.61-3.59,22.83,22.83,0,0,0,1.85,8A5.29,5.29,0,0,1,339.19,313.31Z"/><ellipse class="cls-5" cx="354.89" cy="307.13" rx="14.36" ry="1.76"/><path class="cls-8" d="M342.81,307.13c0,.81,5.41,1.48,12.08,1.48s12.08-.67,12.08-1.48-5.41-1.48-12.08-1.48S342.81,306.31,342.81,307.13Z"/><path class="cls-19" d="M356.26,307.32a2.72,2.72,0,0,0,1.77-.77,4.08,4.08,0,0,0,1.09-1.7,5.09,5.09,0,0,0,.27-2.06,7.06,7.06,0,0,0-.49-2,20.92,20.92,0,0,0-1.86-3.38,21.05,21.05,0,0,1-1.69-3.12,9.8,9.8,0,0,1-.8-3.27,6.72,6.72,0,0,1,.62-3.19,5.14,5.14,0,0,1,.93-1.33,3.55,3.55,0,0,1,1.34-.88,1.87,1.87,0,0,1,1.52.06,1.59,1.59,0,0,1,.88,1.41,1.53,1.53,0,0,0,0-1,2.06,2.06,0,0,0-.57-.86,2.13,2.13,0,0,0-1-.51,3.32,3.32,0,0,0-1.09-.05,5.09,5.09,0,0,0-3.36,2.38,7.47,7.47,0,0,0-1.14,4,10,10,0,0,0,.86,4,17.84,17.84,0,0,0,1.93,3.39,29.54,29.54,0,0,1,2,3,6.75,6.75,0,0,1,.62,1.57,4.09,4.09,0,0,1,.07,1.64A3.26,3.26,0,0,1,356.26,307.32Z"/><path class="cls-19" d="M352.33,305.11a2.49,2.49,0,0,0,1-1.61,4.16,4.16,0,0,0-.1-2,9.59,9.59,0,0,0-1.89-3.16c-.36-.44-.67-.84-1-1.28s-.57-.89-.83-1.36a25.7,25.7,0,0,1-1.38-3.11,6.75,6.75,0,0,0,0,3.65,8.1,8.1,0,0,0,.67,1.75,9.93,9.93,0,0,0,1,1.55,25,25,0,0,1,2,2.53,4.72,4.72,0,0,1,.56,1.39A3.26,3.26,0,0,1,352.33,305.11Z"/><path class="cls-8" d="M365.53,312a.56.56,0,1,0,1.12,0,.56.56,0,0,0-1.12,0Z"/><path class="cls-8" d="M358.79,313.24a.56.56,0,1,0,.56-.56A.56.56,0,0,0,358.79,313.24Z"/><circle class="cls-8" cx="351.49" cy="313.38" r="0.56"/><path class="cls-8" d="M343.49,312.11a.56.56,0,1,0,1.12,0,.56.56,0,0,0-1.12,0Z"/><path class="cls-8" d="M362.44,316.89a.56.56,0,1,0,.56-.56A.56.56,0,0,0,362.44,316.89Z"/><path class="cls-8" d="M354.86,318.57a.56.56,0,1,0,.56-.56A.56.56,0,0,0,354.86,318.57Z"/><path class="cls-8" d="M346.57,317a.57.57,0,0,0,.57.56.56.56,0,0,0,0-1.12A.57.57,0,0,0,346.57,317Z"/><path class="cls-8" d="M359.07,322.64a.56.56,0,1,0,.56-.56A.56.56,0,0,0,359.07,322.64Z"/><circle class="cls-8" cx="351.07" cy="322.36" r="0.56"/><path class="cls-21" d="M277.48,91.32q-2.06,1.8-4.15,3.54"/><path class="cls-22" d="M264.49,101.82A215.51,215.51,0,0,1,188.41,138c-4.82,1.21-9.85,2.25-14.73,1.29s-9.59-4.4-10.57-9.28c-1.32-6.64,4.45-12.57,10.36-15.88,4.79-2.69,10.7-4.58,15.7-2.3,4.4,2,6.93,6.83,7.73,11.6,1.49,8.87-1.91,17.89-6.66,25.53s-10.85,14.36-15.61,22a76.44,76.44,0,0,0-8.26,61.74c4.62,15.33,14.91,29.41,28.78,37"/><path class="cls-21" d="M200.23,272.06a45.62,45.62,0,0,0,5.17,1.77"/><path class="cls-20" d="M279.56,79s-11.63-4.3-26.67,1.68c0,0,12.81,11.61,17.8,14.11C270.69,94.8,284.87,81.13,279.56,79Z"/><path class="cls-23" d="M280.45,82.24a40.4,40.4,0,0,1-6.85,1.3,28,28,0,0,1-17.14-4.1c-1.17.36-2.35.76-3.57,1.25,0,0,12.81,11.61,17.8,14.11C270.69,94.8,278.81,87,280.45,82.24Z"/><path class="cls-20" d="M291.59,100.85S288,112.7,274.1,121c0,0-1.47-17.22-.44-22.71C273.66,98.33,293.12,95.34,291.59,100.85Z"/><path class="cls-23" d="M285,97.54a73.72,73.72,0,0,0-11.32.79c-1,5.49.44,22.71.44,22.71.44-.26.86-.52,1.27-.79C279,112.85,280.15,104.3,285,97.54Z"/><path class="cls-24" d="M302.87,94.74c-15.77,8.91-31.38,11.14-34.86,5s6.49-18.37,22.26-27.28,34.86-5,34.86-5S318.64,85.83,302.87,94.74Z"/><path class="cls-25" d="M324.1,70a70.75,70.75,0,0,1-23.59,18.33,54.08,54.08,0,0,1-16.09,4.81c-4.51.67-9.88.91-13.87-1.68a5.41,5.41,0,0,1-1.05-.9c-2.17,3.61-2.82,6.85-1.49,9.2,3.48,6.16,19.09,3.93,34.86-5C315.08,87.84,321.72,75.28,324.1,70Z"/><path class="cls-20" d="M318.71,79.59a59.48,59.48,0,0,0,6.42-12.13,59.39,59.39,0,0,0-13.77-.76A32.62,32.62,0,0,1,318.71,79.59Z"/><path class="cls-11" d="M306.53,87a7.64,7.64,0,1,1,2.89-10.41A7.65,7.65,0,0,1,306.53,87Z"/><circle class="cls-19" cx="302.77" cy="80.3" r="5.81" transform="translate(-0.8 157.53) rotate(-29.13)"/><polygon class="cls-20" points="276.89 92.37 278.76 95.68 260.26 104.34 276.89 92.37"/><rect class="cls-17" x="131.31" y="47.02" width="78.48" height="53.33" rx="10.92"/><path class="cls-26" d="M209.4,55.11A11,11,0,0,0,198.87,47H142.23a11,11,0,0,0-10.54,8.09Z"/><path class="cls-26" d="M132.46,94.26a10.93,10.93,0,0,0,9.77,6.08h56.64a10.94,10.94,0,0,0,9.77-6.08Z"/><circle class="cls-8" cx="186.9" cy="73.93" r="14.34" transform="translate(2.46 153.81) rotate(-45)"/><path class="cls-24" d="M193.19,61.1,187,74.84l13.7-5.08S199,62.78,193.19,61.1Z"/><path class="cls-24" d="M163.59,64.52h-25a.91.91,0,0,1-.91-.91h0a.91.91,0,0,1,.91-.91h25a.91.91,0,0,1,.91.91h0A.91.91,0,0,1,163.59,64.52Z"/><path class="cls-24" d="M163.59,68.16h-25a.91.91,0,0,1-.91-.91h0a.91.91,0,0,1,.91-.91h25a.91.91,0,0,1,.91.91h0A.91.91,0,0,1,163.59,68.16Z"/><polygon class="cls-18" points="152.37 187.78 148.32 185.06 143.79 186.84 145.13 182.16 142.04 178.4 146.91 178.23 149.53 174.12 151.19 178.7 155.91 179.92 152.07 182.92 152.37 187.78"/><polygon class="cls-18" points="245.69 95.14 241.94 94.97 239.67 97.97 238.68 94.35 235.13 93.12 238.26 91.05 238.34 87.29 241.27 89.64 244.87 88.54 243.55 92.06 245.69 95.14"/><polygon class="cls-18" points="357.56 194.57 354.06 191.19 349.28 192.16 351.42 187.78 349.02 183.54 353.84 184.21 357.14 180.62 357.98 185.42 362.42 187.44 358.12 189.73 357.56 194.57"/><polygon class="cls-18" points="288.27 48.29 284.76 44.91 279.99 45.88 282.12 41.5 279.72 37.26 284.55 37.94 287.84 34.34 288.69 39.14 293.12 41.16 288.82 43.45 288.27 48.29"/><line class="cls-27" x1="-31.37" y1="327.34" x2="546.95" y2="327.34"/><path class="cls-20" d="M282,189.19c-5.15-1.87-2.66-12.45-7.46-34.85-5.18-24.14-40.8-15.88-27.07-17.87-.7-.11-19,.28-23.73,22.33-4.8,22.4-7.89,33-13,34.85s-13.21,11.41,2.91,21c7.4,4.43,21,7.08,34.39,7.12h1.14c13.37,0,27-2.69,34.39-7.12C299.68,205.06,287.15,191.05,282,189.19Z"/><path class="cls-28" d="M269.21,189.1c-9.3-13.86-7.47-30.09-7.91-45.9-6.19-2.89-14.24-2.22-20.87-1.74a96.14,96.14,0,0,1,.68,21.58c-.74,9.56-2.91,20.27-9.31,27.78-3.8,4.45-9,6.23-14.09,8.73a20,20,0,0,0-8.58,8.87,20.38,20.38,0,0,0-1,2.08,27.35,27.35,0,0,0,5.46,4.2c7.4,4.43,21,7.08,34.39,7.12h1.14c13.28,0,26.79-2.65,34.23-7a15,15,0,0,0-1.47-8.21C278.84,199.93,273.23,195.09,269.21,189.1Z"/><path class="cls-29" d="M238.52,189.59s.07,12.69-2.38,14.59c0,0,4.55,6.27,14.42,5.77,0,0,7.6-.67,9.72-3.43,0,0-.76-15.32-.64-18.57C259.64,188,241.32,183.25,238.52,189.59Z"/><path class="cls-30" d="M238.18,196.93c4.19,3.09,8.94,4.82,14.46,3.35a21.4,21.4,0,0,0,7.2-3.57c-.14-3.7-.26-7.36-.2-8.76,0,0-18.32-4.7-21.12,1.64C238.52,189.59,238.54,193.25,238.18,196.93Z"/><path class="cls-29" d="M270.35,160.07l-.08,0c-.8-11-10.34-19.71-22-19.71-12.2,0-22.09,9.5-22.09,21.21a20.32,20.32,0,0,0,.65,5c1,8.82,5.21,27.1,23.33,30.57C250.15,197.11,272.1,193.66,270.35,160.07Z"/><path class="cls-29" d="M230.18,174.31c1.16,3,.78,5.9-.85,6.53s-3.88-1.26-5.05-4.23-.78-5.89.85-6.53S229,171.34,230.18,174.31Z"/><path class="cls-29" d="M275,176c-.79,3.09-2.8,5.24-4.5,4.81s-2.42-3.29-1.63-6.38,2.81-5.25,4.5-4.81S275.82,172.89,275,176Z"/><path class="cls-20" d="M243.48,174.25s-4.79,3.16-9.31-2.26h-1.63l1.63.72S239.05,179.22,243.48,174.25Z"/><path class="cls-20" d="M244.5,169.91s-3.47-4-11.42-1.7c0,0,7.36-.42,9.86,1.7C242.94,169.91,244.46,171.2,244.5,169.91Z"/><path class="cls-20" d="M255.3,174.79s4.79,3.16,9.31-2.26h1.63l-1.63.72S259.73,179.76,255.3,174.79Z"/><path class="cls-20" d="M254.28,170.44s3.48-4,11.42-1.7c0,0-7.36-.41-9.86,1.71C255.84,170.45,254.32,171.74,254.28,170.44Z"/><g class="cls-31"><path class="cls-20" d="M247.75,180.76s2.4,2.58,3.88.28C251.63,181,250,184,247.75,180.76Z"/><path class="cls-20" d="M246.57,179.85a1.16,1.16,0,0,0,.45,2A2.5,2.5,0,0,1,246.57,179.85Z"/><path class="cls-20" d="M252.85,179.94a1.16,1.16,0,0,1-.45,2A2.5,2.5,0,0,0,252.85,179.94Z"/></g><path class="cls-20" d="M271.21,158.2h1.22c.12-5-.32-7.76-2.56-12.38-1.71-3.56-3.31-4.8-7.23-5.66-2.9-.64-5.78-2.5-8.78-2.12a13,13,0,0,0-2.33.84,2,2,0,0,1-1,.21,32.24,32.24,0,0,0-8.63-1.06,11.9,11.9,0,0,0-9.5,4.58,20.11,20.11,0,0,0-2.2,3.32c-1,1.87-1.58,1.57-1.92,3.56-7.34,11.38-1,20.27-1,20.27-.06-.58,1,3.31,1,2.76,1.1,3.89,1.41,8.38,1.84,9,.82,1.08,1.81-1.18,1.81-1.18-3-7.27-.4-16.16,2.16-22.14l16.09,0a.77.77,0,0,0,.82-.6c.6-1.51,1.23-3,1.85-4.52l.24-.59,1,.07.75,5.58H261c.1-1.26.19-2.49.29-3.72.28.14.55.28.81.43.28.91.52,1.82.78,2.73.07.24.38.59.58.59l2.51,0a13.79,13.79,0,0,1,2.36,4.89l-.15.22s.45,16.65-.91,21.85c0,0,.57,1.31,1.58.41.82-.74,2.88-12.27,3.11-18.27C272.51,165,271.68,161.79,271.21,158.2Z"/><path class="cls-32" d="M245.65,186.13s.32.55,2-.18a5.41,5.41,0,0,1,5.85.55,1.43,1.43,0,0,0,1.28-.21,4.48,4.48,0,0,1-4.41,3.88C246.34,190.47,245.65,186.13,245.65,186.13Z"/><path class="cls-19" d="M247.9,187a32.72,32.72,0,0,0,4.69.07s-.13,1.54-2.35,1.48S247.9,187,247.9,187Z"/><path class="cls-33" d="M260.1,163.48c-4.33,0-7.84,4.12-7.84,9.19,0,.34,0,.67,0,1-2.14-2.16-4.77-.65-5.53-.14,0-.28,0-.56,0-.85,0-5.07-3.51-9.19-7.84-9.19s-7.85,4.12-7.85,9.19,3.51,9.19,7.85,9.19c3.82,0,7-3.21,7.69-7.45a4.6,4.6,0,0,1,5.72-.17c.63,4.33,3.84,7.62,7.72,7.62,4.33,0,7.84-4.11,7.84-9.19S264.43,163.48,260.1,163.48ZM239,181.22c-4,0-7.3-3.83-7.3-8.55s3.27-8.55,7.3-8.55,7.29,3.83,7.29,8.55S243,181.22,239,181.22Zm21.13,0c-4,0-7.3-3.83-7.3-8.55s3.27-8.55,7.3-8.55,7.29,3.83,7.29,8.55S264.13,181.22,260.1,181.22Z"/><path class="cls-11" d="M282.71,212.55c-.43-1.72-18.51-7.7-22.33-9a20.06,20.06,0,0,1-14,3.73c-3.92-.36-7.93-1.89-10.39-4.87l-.19,0s-24,7.66-24.43,9.58,13.41,40.25,12.45,50.31-8.14,18.69-6.7,23.48c0,0,11.84,1.79,23,2.46l0,.42c11.5,1.43,36.9-2.4,36.9-2.4,1.44-4.79-5.75-13.42-6.71-23.48S283.19,214.47,282.71,212.55Z"/><path class="cls-34" d="M277,232.37a60.15,60.15,0,0,1-16.29,9.27c-10.18,3.89-24.09,3.23-33.58-2.27A35.58,35.58,0,0,1,216.17,229c3.73,12.23,8.17,27.56,7.61,33.39-.95,10.06-8.14,18.69-6.7,23.48,0,0,11.84,1.79,23,2.46l0,.42c11.5,1.43,36.9-2.4,36.9-2.4,1.44-4.79-5.75-13.42-6.71-23.48C269.74,257.48,273.47,244,277,232.37Z"/><path class="cls-19" d="M237.74,201.68l-2,.81s4.6,10.56,13.24,14.24c0,0,10.81-5.8,12.56-13l-1.46-1.06S250.38,208.74,237.74,201.68Z"/><path class="cls-11" d="M212.21,211.18s-36,44.15-31.07,53.46,31.05,22.63,37.7,22.63l9.32-6.66s-24.84-20.4-24-24.39S224.61,230,224.61,230,219.33,206.52,212.21,211.18Z"/><path class="cls-34" d="M204.2,256.22c.79-3.52,16-21.15,19.64-25.29-10.25,5.11-19,13.47-23.71,24a32,32,0,0,0-1.35,24.25c8.15,4.64,16.66,8.13,20.06,8.13l9.32-6.66S203.32,260.21,204.2,256.22Z"/><path class="cls-8" d="M225.94,301.46s-57.22-46.58-67-30.16,18.63,46.13,60.33,51.9Z"/><path class="cls-11" d="M283.43,212.51S319.38,256.66,314.5,266s-31.05,22.63-37.7,22.63l-9.32-6.66s24.85-20.4,24-24.39S271,231.37,271,231.37,276.31,207.85,283.43,212.51Z"/><path class="cls-34" d="M307.86,269.38c-5.94-10.55-13.35-19.71-23.14-26.93-3.48-2.56-6.87-5.24-10.3-7.86l-1.73-1.31c4.73,5.45,18,21,18.75,24.27.89,4-24,24.39-24,24.39l9.32,6.66c5.47,0,24.12-9,33.3-17.37A4,4,0,0,1,307.86,269.38Z"/><path class="cls-8" d="M271.48,301.46s57.22-46.58,67-30.16-18.63,46.13-60.33,51.9Z"/><path class="cls-34" d="M235.5,203.08s6.2,10.85,13.5,13.65c0,0,9.59-5.22,12.56-13,0,0,1.72-.34,1.57.74s-5.9,11.65-14.13,14.44c0,0-6.82-1.4-16.14-15.52C232.86,203.39,234.86,202,235.5,203.08Z"/><path class="cls-35" d="M177.24,283.75s17.81,8.31,22,15.44"/><path class="cls-35" d="M313.76,284.35S297.14,293.25,293,301"/><polygon class="cls-36" points="196.22 318.92 125.24 118.56 361.23 118.56 300.16 320.54 196.22 318.92"/><rect class="cls-20" x="195.48" y="255.77" width="104.24" height="65.21"/><path class="cls-37" d="M290.1,255.77c-1.6,17.39-8.22,34.09-22.57,45.23-10.8,8.39-24.11,12-37.65,11.75-11.57-.21-22.93-2.51-34.4-3.79v12H299.72v-65.2Z"/><path class="cls-5" d="M250.51,288.41a4,4,0,1,1-4-4.26A4.11,4.11,0,0,1,250.51,288.41Z"/><path class="cls-38" d="M301.35,327.63h-106a3.56,3.56,0,0,1-3.55-3.55h0a3.56,3.56,0,0,1,3.55-3.54h106a3.56,3.56,0,0,1,3.55,3.54h0A3.56,3.56,0,0,1,301.35,327.63Z"/></g></g></g></svg>